<svg xmlns="http://www.w3.org/2000/svg" width="311.723" height="135.603" viewBox="0 0 311.723 135.603"><defs><style>.a{fill:#ffe900;}.b{fill:#060707;}.c{fill:#040505;}.d{fill:#fff;}</style></defs><g transform="translate(348.377 48.376)"><g transform="translate(-343.249 -43.248)"><ellipse class="a" cx="150.733" cy="62.673" rx="150.733" ry="62.673"/><path class="b" d="M-197.2,58.418c-38.224,0-73.917-6.089-100.5-17.139-25.141-10.454-34.06-22.141-34.06-28.974s8.92-18.517,34.059-28.972a180.626,180.626,0,0,1,18.3-6.414,1.563,1.563,0,0,1,1.937,1.058,1.558,1.558,0,0,1-1.056,1.935,177.74,177.74,0,0,0-17.979,6.3c-22.08,9.181-32.137,19.958-32.137,26.089S-318.586,29.216-296.5,38.4c26.212,10.9,61.478,16.9,99.3,16.9a328.774,328.774,0,0,0,47.808-3.382,1.58,1.58,0,0,1,1.773,1.317,1.567,1.567,0,0,1-1.317,1.773A332.532,332.532,0,0,1-197.2,58.418Z" transform="translate(347.936 50.366)"/><path class="b" d="M-131.028,49.646a1.563,1.563,0,0,1-1.494-1.109,1.559,1.559,0,0,1,1.042-1.945c5.8-1.755,11.341-3.723,16.46-5.85,22.079-9.18,32.137-19.961,32.137-26.091S-92.938-2.257-115.019-11.438c-26.214-10.9-61.479-16.9-99.3-16.9a322.383,322.383,0,0,0-54.926,4.522,1.539,1.539,0,0,1-1.8-1.267,1.558,1.558,0,0,1,1.271-1.8,325.472,325.472,0,0,1,55.46-4.571c38.222,0,73.914,6.087,100.5,17.139C-88.681-3.866-79.762,7.819-79.762,14.652s-8.922,18.52-34.06,28.974c-5.217,2.165-10.853,4.171-16.756,5.953A1.521,1.521,0,0,1-131.028,49.646Z" transform="translate(365.055 48.02)"/><g transform="translate(72.322 16.643)"><path class="c" d="M-280.065-21.859a8,8,0,0,0-3.9-.165,4.007,4.007,0,0,1-2.668-.224c-.4-.185-.833-.3-1.333-.48.472-1.549.913-3.039,1.395-4.513.04-.119.4-.238.556-.191a6.278,6.278,0,0,1,3.294,1.767,17.368,17.368,0,0,0,2.9,2.231l.163-.141a2.167,2.167,0,0,0-.036-.527,14.591,14.591,0,0,0-1.055-3.044,6.568,6.568,0,0,1-.686-3.671c0-.447.19-.581.6-.577q2.048.021,4.1,0c.419,0,.578.15.579.592a6.587,6.587,0,0,1-.731,3.728,11.581,11.581,0,0,0-1.123,3.48,10.092,10.092,0,0,0,3.717-2.659c.762-.937,1.939-.867,2.932-1.237.064-.023.274.174.315.3.437,1.349.867,2.7,1.254,4.062a.659.659,0,0,1-.306.55,16.182,16.182,0,0,1-1.935.682,2.49,2.49,0,0,1-.822,0c-1.192-.079-2.383-.186-3.577-.24a4.591,4.591,0,0,0-1.044.218,9.3,9.3,0,0,0,3.4,2.578,3.155,3.155,0,0,1,1.646,1.368c.269.447.6.858.955,1.367-1.013.759-1.992,1.5-2.974,2.23-1.1.818-1.089.805-1.927-.313A4.238,4.238,0,0,1-277.354-17a8.964,8.964,0,0,0-1.417-3.948,8.664,8.664,0,0,0-1.256,3.655c-.058,1.6-1.083,2.535-1.946,3.73-1.294-.962-2.551-1.882-3.782-2.836a.631.631,0,0,1-.012-.583,6.069,6.069,0,0,1,2.691-2.631A9.129,9.129,0,0,0-280.065-21.859Z" transform="translate(287.968 31.395)"/></g><g transform="translate(206.396 91.386)"><path class="c" d="M-181.186,42.241l3.782-5.135-5.99-1.891c.39-1.236.76-2.382,1.113-3.535.147-.483.455-.295.727-.2,1.413.479,2.822.972,4.232,1.459.327.113.655.222,1.1.373,0-.741.005-1.392,0-2.045-.012-1.213-.005-2.427-.056-3.64-.024-.581.191-.741.726-.721.905.035,1.815.031,2.722,0,.494-.017.633.163.617.663-.059,1.736-.076,3.473-.1,5.21a4.818,4.818,0,0,0,.06.506c.831-.277,1.619-.535,2.4-.805.947-.326,1.9-.647,2.836-1.005.508-.194.749-.083.894.477.226.872.508,1.732.819,2.577.2.531.077.763-.456.921-1.5.445-2.98.936-4.467,1.413-.24.076-.474.167-.853.3l3.717,5.126-3.291,2.441-3.614-5.26-3.627,5.205Z" transform="translate(183.394 -26.903)"/></g><g transform="translate(70.486 51.638)"><g transform="translate(63.01 6.973)"><path class="c" d="M-222.155,12.287v4.078h-4.573V13.719a2.556,2.556,0,0,0-.685-1.989,3.5,3.5,0,0,0-2.345-.617H-235.7v5.251h-4.554V1.567h11.727q6.314,0,6.313,3.839v.238q0,2.346-2.7,3.241a4.207,4.207,0,0,1,1.995,1.2A3.159,3.159,0,0,1-222.155,12.287Zm-4.808-5.927a1.314,1.314,0,0,0-.45-1.033,2.05,2.05,0,0,0-1.387-.4h-6.9V7.833h6.9a2.05,2.05,0,0,0,1.387-.4,1.338,1.338,0,0,0,.45-1.054Z" transform="translate(240.254 -1.275)"/><path class="c" d="M-207.438,1.339V4.763h-11.977v2.23h11.7v3.445h-11.7V12.91h12.194v3.507h-17.166V1.339Z" transform="translate(244.73 -1.339)"/><path class="c" d="M-209.505,1.339h13.772a8.047,8.047,0,0,1,4.54.963,2.936,2.936,0,0,1,1.341,2.482v.285a2.83,2.83,0,0,1-.271,1.246,2.378,2.378,0,0,1-.724.891,5.683,5.683,0,0,1-.822.517,4.026,4.026,0,0,1-.735.283,5.644,5.644,0,0,1,1.015.345,7.192,7.192,0,0,1,1.1.638,2.98,2.98,0,0,1,.973,1.145,3.642,3.642,0,0,1,.368,1.662v.283q0,4.337-6.659,4.337h-13.9Zm5.037,5.634h7.871q1.75,0,1.75-1.215V5.716q0-1.194-1.75-1.195h-7.871Zm0,3.2v2.958h8.3a2.146,2.146,0,0,0,1.556-.445,1.441,1.441,0,0,0,.432-1.035v-.081q0-1.4-1.989-1.4Z" transform="translate(248.928 -1.339)"/><path class="c" d="M-175.015,1.339V4.763h-11.977v2.23h11.7v3.445h-11.7V12.91H-174.8v3.507h-17.166V1.339Z" transform="translate(253.876 -1.339)"/><path class="c" d="M-171.81,1.382v11.3h11.152v3.74h-16.176V1.382Z" transform="translate(258.144 -1.327)"/></g><path class="c" d="M-236.526,8.776A4.392,4.392,0,0,0-237.948,7.1a10.6,10.6,0,0,0-1.615-.938,8.473,8.473,0,0,0-1.491-.5,5.793,5.793,0,0,0,1.077-.414,8.01,8.01,0,0,0,1.2-.756,3.485,3.485,0,0,0,1.062-1.306,4.142,4.142,0,0,0,.395-1.822V.945a4.3,4.3,0,0,0-1.964-3.637Q-241.245-4.1-245.928-4.1H-289.4V17.97h43.664q9.746,0,9.746-6.346v-.414A5.315,5.315,0,0,0-236.526,8.776Zm-45.5-8.218h34.832q2.564,0,2.563,1.751v.06q0,1.779-2.563,1.781h-34.832ZM-243.647,11a2.125,2.125,0,0,1-.632,1.513,3.146,3.146,0,0,1-2.281.651h-35.464V8.833h35.464c1.941,0,2.913.687,2.913,2.049Z" transform="translate(289.4 4.1)"/><rect class="c" width="4.801" height="4.906" transform="translate(55.34 17.164)"/></g></g><path class="d" d="M-192.515-43.248c83.248,0,150.732,28.06,150.732,62.673S-109.267,82.1-192.515,82.1s-150.734-28.06-150.734-62.673,67.486-62.673,150.734-62.673m0-5.128c-87.4,0-155.862,29.782-155.862,67.8s68.463,67.8,155.862,67.8,155.861-29.782,155.861-67.8-68.463-67.8-155.861-67.8Z" transform="translate(0 0)"/></g></svg>