<svg xmlns="http://www.w3.org/2000/svg" width="54" height="54" viewBox="0 0 54 54"><defs><style>.a{fill:#ff4e00;}.b{fill:#fff;}</style></defs><g transform="translate(-1598 -49.125)"><circle class="a" cx="27" cy="27" r="27" transform="translate(1598 49.125)"/><g transform="translate(1586 67.125)"><g transform="translate(34.281)"><path class="b" d="M125.922,0a4.922,4.922,0,1,0,4.922,4.922A4.927,4.927,0,0,0,125.922,0Z" transform="translate(-121)"/></g><g transform="translate(31 10.937)"><path class="b" d="M45.327,302.122A7.016,7.016,0,0,0,40.3,300H38.109a7.017,7.017,0,0,0-5.03,2.122A7.173,7.173,0,0,0,31,307.182a.547.547,0,0,0,.547.547H46.859a.547.547,0,0,0,.547-.547A7.173,7.173,0,0,0,45.327,302.122Z" transform="translate(-31 -300)"/></g></g></g></svg>