<svg xmlns="http://www.w3.org/2000/svg" xmlns:xlink="http://www.w3.org/1999/xlink" width="213.77" height="213.771" viewBox="0 0 213.77 213.771"><defs><style>.a{fill:none;}.b{clip-path:url(#a);}.c{fill:#27bbe4;}.d{fill:#0090d3;}.e{fill:#2160ab;}.f{fill:#3a4294;}.g{fill:#4e2f88;}.h{fill:#fc9200;}.i{fill:#ffd000;}.j{fill:#130b2a;}.k{fill:#d64731;}.l{fill:#f16d11;}.m{fill:#6d2e87;}.n{fill:#eedf00;font-size:24px;font-family:BebasNeuePro-Bold, Bebas Neue Pro;font-weight:700;letter-spacing:-0.012em;}.o{fill:#fff;}</style><clipPath id="a"><rect class="a" width="197.264" height="197.264" rx="8.944"/></clipPath></defs><g transform="translate(-4.366 -4.6)"><g transform="translate(12.765 12.706)"><g transform="translate(0 0)"><g class="b"><g transform="translate(-50.295 -2.866)"><path class="c" d="M278.7,63.89H-16.017l12.34,51.551H264.435Z" transform="translate(16.017 52.74)"/><rect class="d" width="297.564" height="33.741" transform="translate(0 86.148)"/><rect class="e" width="297.564" height="33.741" transform="translate(0 55.667)"/><path class="f" d="M271.267,19.4H-3.677l-12.34,33.741H281.547Z" transform="translate(16.017 5.783)"/><path class="g" d="M225,7.149,9.912,7.18-9.077,35.594H260.813Z" transform="translate(23.341 -7.149)"/><circle class="h" cx="45.898" cy="45.898" r="45.898" transform="translate(102.426 102.013)"/><g transform="translate(103.47 102.013)"><path class="i" d="M124.029,92.941a45.9,45.9,0,0,0-89.707,0,49.164,49.164,0,0,1,89.707,0Z" transform="translate(-34.322 -56.779)"/></g><g transform="translate(0.232 90.021)"><path class="j" d="M68.208,197.468s100.85,13.093,129.428-5.225l9.99-20.179s40.9-24.674,52.049-49.05c8.518-18.617,18.392-51.457,21.753-70.289-1.9.4-3.108.763-3.108.763-1.741-1.934-16.822,10.828-19.143,16.049s-7.542,10.249-11.8,11.215-13.922,16.631-16.629,17.79S222.631,88.1,219.537,84.233s-5.414,1.932-8.508,2.514-6-1.741-9.283.58-2.514,8.121-28.232,26.877c-.386,2.514-10.055,12.376-31.132,10.055-14.888,8.508-36.74-1.548-39.833-5.028s-4.641-3.48-9.087-4.255-7.735-5.028-11.217-6.573-6.767-13.535-9.281-16.049-7.542-7.928-11.408-9.862S51.5,94.675,45.7,94.287s-4.832-10.249-12.76-22.816-5.8-16.824-12.376-19.531-9.862.58-10.828,4.255-11.215,3.48-14.31,3.866C-7.267,60.4-9.814,69.806-15.9,75.685,15.545,163.6,57.055,176.255,57.055,176.255Z" transform="translate(15.904 -50.945)"/></g><g transform="translate(103.485 157.702)"><path class="k" d="M124.01,83.872a46.8,46.8,0,0,1-3.474,10.134H37.8a46.8,46.8,0,0,1-3.474-10.134Z" transform="translate(-34.329 -83.872)"/></g><g transform="translate(102.426 142.5)"><path class="l" d="M125.61,81.886a46.54,46.54,0,0,0-.327-5.41H34.143a45.364,45.364,0,0,0,.869,15.811h89.4A45.981,45.981,0,0,0,125.61,81.886Z" transform="translate(-33.814 -76.476)"/></g><g transform="translate(26.122 167.155)"><path class="m" d="M242,92.724q.583-.817,1.131-1.638l-3.778-1.951-.212-.109L-1.968,88.473l-.238,0-1.1.563q.521.851,1.04,1.686l.534-.271,26.676.062L17.4,95.647.885,95.61q.669,1.005,1.334,1.977l12.286.029-8.253,5.62q1.3,1.739,2.578,3.359l31.328.072-9.486,9.692-13.459-.031c.643.68,1.283,1.344,1.912,1.979l9.62.023-4.625,4.726q.755.672,1.488,1.3l5.893-6.023,41.663.1-6.775,13.823-30.137-.068c1.336.814,2.518,1.468,3.521,1.981l25.65.06-10.09,20.594-1.971,0,1.227,2.391s.586.08,1.663.222l.31-.631,60.762.14-.012,5.377c.658.016,1.318.033,1.975.047l.012-5.42,56.386.132a45.549,45.549,0,0,0,5.5-2.2l-9.881-20.4,22.283.051c.666-1.311.666-1.313.666-1.313s.386-.228,1.087-.658l-24.995-.058-6.709-13.856,41.661.1,4.216,4.345q.8-.573,1.614-1.172l-3.071-3.167,7.27.016q1.249-.959,2.522-1.969l-11.712-.027-9.443-9.735,32.427.074q1.341-1.264,2.647-2.557l-9.379-6.45,15.361.035q.839-.98,1.636-1.971L219.5,96.113l-7.523-5.174L238.659,91ZM117.415,116.559l-41.089-.1,4.754-9.7,36.357.084ZM79.851,104.783l-35.007-.08,6.853-7,31.587.072Zm37.593.086-35.4-.082,3.435-7.007,31.977.072Zm.031-14.148-.01,5.157-31.017-.072,2.524-5.151Zm-30.7-.07L84.251,95.8l-30.625-.07,5.036-5.145Zm-58.33-.134L55.9,90.58l-5.036,5.145L20.9,95.655Zm-20.711,14.1L18,97.624,48.94,97.7l-6.853,7Zm25.7,11.747,9.486-9.692,35.967.084-4.754,9.7Zm41.93,2.072,42.051.1-.031,13.84-48.8-.111Zm-17.833,36.39,10.092-20.592,49.757.113-.047,20.617ZM178.263,90.862l5.013,5.167-30.625-.07-2.5-5.161Zm6.933,7.147,6.82,7.032-35-.08-3.4-7.024ZM119.45,90.726l28.5.066,2.5,5.163-31.015-.072Zm-.016,7.133,31.979.074,3.4,7.024-35.4-.082Zm-.021,8.991,36.359.084,4.709,9.724-41.091-.095ZM179.1,155.108l-59.8-.138.047-20.617,49.757.113Zm-10.954-22.619-48.793-.111.031-13.84,42.053.1Zm35.229-15.733-40.7-.095-4.711-9.724,35.969.084Zm25.749-11.63-34.353-.078-6.82-7.034,30.935.072Zm-13.12-9.021-29.973-.07-5.011-5.167,27.459.064Z" transform="translate(3.308 -88.471)"/></g></g><text class="n" transform="translate(95.306 52.56)"><tspan x="-35.04" y="0"># Unleash</tspan><tspan x="-46.248" y="21">the Real You.</tspan></text></g></g></g><path class="o" d="M191.53,12.822a18.385,18.385,0,0,1,18.384,18.386V191.764a18.383,18.383,0,0,1-18.384,18.384H30.974a18.385,18.385,0,0,1-18.386-18.384V31.208A18.387,18.387,0,0,1,30.974,12.822H191.53m0-8.222H30.974A26.638,26.638,0,0,0,4.366,31.208V191.764A26.638,26.638,0,0,0,30.974,218.37H191.53a26.637,26.637,0,0,0,26.606-26.606V31.208A26.638,26.638,0,0,0,191.53,4.6Z" transform="translate(0 0)"/></g></svg>