<svg xmlns="http://www.w3.org/2000/svg" width="138" height="57" viewBox="0 0 138 57"><defs><style>.a{fill:#fff;}</style></defs><g transform="translate(-100 -97.085)"><path class="a" d="M125.564,342.993v5.828H119.1v-3.781a3.681,3.681,0,0,0-.966-2.843,4.9,4.9,0,0,0-3.313-.881h-8.393v7.505H100V327.669h16.565q8.916,0,8.917,5.487v.341q0,3.355-3.81,4.634a5.911,5.911,0,0,1,2.817,1.72A4.55,4.55,0,0,1,125.564,342.993Zm-6.791-8.473a1.892,1.892,0,0,0-.635-1.478,2.873,2.873,0,0,0-1.96-.569h-9.746v4.151h9.746a2.872,2.872,0,0,0,1.96-.569,1.924,1.924,0,0,0,.635-1.507Z" transform="translate(0 -194.746)"/><path class="a" d="M307.578,325v4.9H290.661v3.186h16.52v4.924h-16.52v3.534h17.222v5.011H283.638V325Z" transform="translate(-154.826 -192.498)"/><path class="a" d="M455.881,325h19.451q4.519,0,6.413,1.376a4.209,4.209,0,0,1,1.893,3.548v.406a4.066,4.066,0,0,1-.382,1.781,3.364,3.364,0,0,1-1.023,1.274,7.994,7.994,0,0,1-1.161.739,5.786,5.786,0,0,1-1.038.406,7.83,7.83,0,0,1,1.435.492,10.113,10.113,0,0,1,1.557.912,4.247,4.247,0,0,1,1.374,1.637,5.259,5.259,0,0,1,.519,2.375v.406q0,6.2-9.405,6.2H455.881ZM463,333.057h11.115q2.473,0,2.474-1.738v-.058q0-1.709-2.474-1.709H463Zm0,4.576v4.229h11.726a3,3,0,0,0,2.2-.637,2.069,2.069,0,0,0,.611-1.477v-.116q0-2-2.809-2Z" transform="translate(-300.039 -192.498)"/><path class="a" d="M682.826,325v4.9H665.909v3.186h16.52v4.924h-16.52v3.534h17.222v5.011H658.886V325Z" transform="translate(-471.2 -192.498)"/><path class="a" d="M841.076,325.511v16.153h15.75v5.346H833.978v-21.5Z" transform="translate(-618.826 -192.925)"/><path class="a" d="M174.449,115.49a6.254,6.254,0,0,0-2.009-2.394,14.666,14.666,0,0,0-2.281-1.341,11.946,11.946,0,0,0-2.106-.721,8.073,8.073,0,0,0,1.52-.591,11.34,11.34,0,0,0,1.7-1.082,4.975,4.975,0,0,0,1.5-1.868,5.969,5.969,0,0,0,.558-2.6V104.3a6.171,6.171,0,0,0-2.776-5.2q-2.772-2.012-9.387-2.012H100v31.545h61.442q13.766,0,13.766-9.073v-.591A7.668,7.668,0,0,0,174.449,115.49Zm-64.03-11.747h48.966q3.62,0,3.62,2.5v.087q0,2.542-3.62,2.546H110.419Zm53.973,14.928a3.062,3.062,0,0,1-.893,2.164,4.415,4.415,0,0,1-3.222.93H110.419v-6.2h49.859c2.741,0,4.115.981,4.115,2.928Z" transform="translate(0 0)"/><rect class="a" width="6.781" height="7.013" transform="translate(178.117 121.501)"/></g></svg>