<svg xmlns="http://www.w3.org/2000/svg" width="22.088" height="22.089" viewBox="0 0 22.088 22.089"><defs><style>.a{fill:#fff;}</style></defs><path class="a" d="M15.672,0H6.416A6.424,6.424,0,0,0,0,6.416v9.256a6.424,6.424,0,0,0,6.416,6.416h9.256a6.424,6.424,0,0,0,6.416-6.416V6.416A6.424,6.424,0,0,0,15.672,0Zm4.691,15.672a4.7,4.7,0,0,1-4.691,4.691H6.416a4.7,4.7,0,0,1-4.691-4.691V6.416A4.7,4.7,0,0,1,6.416,1.726h9.256a4.7,4.7,0,0,1,4.691,4.691Z"/><g transform="translate(5.091 5.091)"><path class="a" d="M123.954,118a5.954,5.954,0,1,0,5.954,5.954A5.96,5.96,0,0,0,123.954,118Zm0,10.181a4.228,4.228,0,1,1,4.228-4.228A4.233,4.233,0,0,1,123.954,128.181Z" transform="translate(-118 -118)"/></g><g transform="translate(16.308 4.146)"><g transform="translate(0 0)"><circle class="a" cx="1" cy="1" r="1" transform="translate(-0.22 -0.057)"/></g></g></svg>