<svg xmlns="http://www.w3.org/2000/svg" width="1471.832" height="617.368" viewBox="0 0 1471.832 617.368"><defs><style>.a{fill:#fff;mix-blend-mode:overlay;isolation:isolate;}</style></defs><path class="a" d="M1556.957,457.275c-9.964-19.9-23.066-35.569-39.307-46.859q-24.564-17.146-44.63-26.251a233.772,233.772,0,0,0-41.215-14.116,157.993,157.993,0,0,0,29.754-11.572c9.961-4.939,21.018-12,33.3-21.171s21.973-21.312,29.343-36.555c7.233-15.1,10.92-32.182,10.92-50.952V238.224c0-41.494-18.152-75.507-54.321-101.761s-97.309-39.378-183.7-39.378L100,97.11V714.453l1202.423-.021q269.407,0,269.409-177.553V525.3C1571.832,499.9,1566.917,477.175,1556.957,457.275ZM303.9,227.382l958.261-.025q70.834,0,70.835,48.977v1.694q0,49.752-70.835,49.823l-958.261.021ZM1360.152,519.517c0,15.95-5.867,30.064-17.469,42.342q-17.605,18.207-63.054,18.207l-975.73.024V458.852l975.73-.025c53.638,0,80.523,19.2,80.523,57.3Z" transform="translate(-100 -97.085)"/></svg>