<svg xmlns="http://www.w3.org/2000/svg" width="508.645" height="420.715" viewBox="0 0 508.645 420.715"><defs><style>.a{fill:#72f5ff;}</style></defs><path class="a" d="M1344.508,342.542c-6.79-13.561-15.719-24.239-26.787-31.932a195.6,195.6,0,0,0-30.414-17.889,159.308,159.308,0,0,0-28.087-9.62,107.668,107.668,0,0,0,20.276-7.886,151.24,151.24,0,0,0,22.693-14.427c8.37-6.252,14.974-14.523,20-24.911a79.6,79.6,0,0,0,7.441-34.722v-7.888c0-28.277-12.37-51.456-37.018-69.347S1226.3,97.085,1167.426,97.085L846,97.1V517.8l325.052-.014q183.591,0,183.593-121V388.9C1354.645,371.588,1351.3,356.1,1344.508,342.542Z" transform="translate(-846 -97.085)"/></svg>