<svg xmlns="http://www.w3.org/2000/svg" width="23.189" height="18.841" viewBox="0 0 23.189 18.841"><defs><style>.a{fill:#d9d9d9;}</style></defs><g transform="translate(0 -48)"><g transform="translate(0 48)"><path class="a" d="M23.189,50.23a9.911,9.911,0,0,1-2.739.751,4.727,4.727,0,0,0,2.091-2.628A9.5,9.5,0,0,1,19.526,49.5,4.754,4.754,0,0,0,11.3,52.755a4.895,4.895,0,0,0,.11,1.084,13.456,13.456,0,0,1-9.8-4.973A4.755,4.755,0,0,0,3.075,55.22a4.7,4.7,0,0,1-2.148-.586v.052a4.776,4.776,0,0,0,3.809,4.671,4.745,4.745,0,0,1-1.246.157,4.2,4.2,0,0,1-.9-.081,4.8,4.8,0,0,0,4.442,3.312,9.552,9.552,0,0,1-5.894,2.028A8.9,8.9,0,0,1,0,64.707a13.384,13.384,0,0,0,7.293,2.133A13.437,13.437,0,0,0,20.823,53.313c0-.21-.007-.413-.017-.615A9.484,9.484,0,0,0,23.189,50.23Z" transform="translate(0 -48)"/></g></g></svg>