<svg xmlns="http://www.w3.org/2000/svg" width="164.918" height="136.409" viewBox="0 0 164.918 136.409"><defs><style>.a{fill:#0230e5;}.b{fill:#fff;}</style></defs><g transform="translate(-889.041 -6906.795)"><path class="a" d="M1007.631,176.669a27.042,27.042,0,0,0-8.685-10.353,63.417,63.417,0,0,0-9.861-5.8,51.65,51.65,0,0,0-9.107-3.119,34.911,34.911,0,0,0,6.574-2.557,49.035,49.035,0,0,0,7.358-4.678,21.513,21.513,0,0,0,6.483-8.077,25.809,25.809,0,0,0,2.413-11.258V128.27c0-9.168-4.011-16.683-12-22.484s-21.5-8.7-40.588-8.7L846,97.09v136.4l105.392,0q59.526,0,59.526-39.231V191.7A33.159,33.159,0,0,0,1007.631,176.669Z" transform="translate(43.041 6809.71)"/><path class="b" d="M33.966,10.257a7,7,0,0,1,12.067,0L73.795,57.451A7,7,0,0,1,67.761,68H12.239A7,7,0,0,1,6.205,57.451Z" transform="translate(1002 6934.999) rotate(90)"/></g></svg>