<svg xmlns="http://www.w3.org/2000/svg" width="1113.308" height="462.82" viewBox="0 0 1113.308 462.82"><defs><style>.a{fill:#fff;}</style></defs><g transform="translate(-100 -97.085)"><path class="a" d="M306.7,451.569V498.69H254.472V468.117q0-15.866-7.814-22.986t-26.786-7.124H152.01V498.69H100V327.669H233.935q72.093,0,72.1,44.364v2.756q0,27.126-30.8,37.468Q289.29,416.4,298,426.164T306.7,451.569Zm-54.911-68.505a15.3,15.3,0,0,0-5.135-11.951q-5.133-4.594-15.846-4.6h-78.8V400.08h78.8q10.712,0,15.846-4.6a15.556,15.556,0,0,0,5.135-12.183Z" transform="translate(0 61.133)"/><path class="a" d="M477.207,325v39.582H340.426v25.762H474v39.815H340.426v28.573h139.25v40.515H283.638V325Z" transform="translate(48.687 60.427)"/><path class="a" d="M455.881,325H613.156q36.542,0,51.85,11.126t15.308,28.689v3.28a32.872,32.872,0,0,1-3.088,14.4,27.2,27.2,0,0,1-8.271,10.3,64.634,64.634,0,0,1-9.384,5.974,46.782,46.782,0,0,1-8.392,3.279,63.311,63.311,0,0,1,11.6,3.981,81.759,81.759,0,0,1,12.593,7.377,34.337,34.337,0,0,1,11.111,13.232,42.516,42.516,0,0,1,4.195,19.2v3.281q0,50.12-76.046,50.119H455.881Zm57.527,65.111h89.873q19.994,0,20-14.052v-.47q0-13.817-20-13.819H513.409Zm0,37v34.2H608.22q12.84,0,17.775-5.153a16.731,16.731,0,0,0,4.939-11.945v-.936q0-16.162-22.714-16.162Z" transform="translate(94.352 60.427)"/><path class="a" d="M852.456,325v39.582H715.675v25.762h133.57v39.815H715.675v28.573H854.926v40.515H658.886V325Z" transform="translate(148.174 60.427)"/><path class="a" d="M891.368,325.511V456.119h127.346v43.225H833.979V325.511Z" transform="translate(194.594 60.561)"/><path class="a" d="M701.959,245.9a50.564,50.564,0,0,0-16.24-19.36A118.582,118.582,0,0,0,667.279,215.7a96.587,96.587,0,0,0-17.029-5.832,65.272,65.272,0,0,0,12.293-4.781,91.693,91.693,0,0,0,13.758-8.747,40.229,40.229,0,0,0,12.124-15.1,48.262,48.262,0,0,0,4.512-21.051V155.4c0-17.144-7.5-31.2-22.443-42.044s-40.2-16.27-75.9-16.27L100,97.1V352.158l496.8-.009q111.309,0,111.309-73.358v-4.782C708.1,263.512,706.074,254.124,701.959,245.9ZM184.243,150.919l395.917-.01q29.266,0,29.266,20.236v.7q0,20.556-29.266,20.585l-395.917.009Zm436.4,120.7a24.761,24.761,0,0,1-7.218,17.494q-7.274,7.523-26.051,7.522l-403.134.01V246.553l403.134-.01c22.161,0,33.269,7.931,33.269,23.676Z" transform="translate(0 0)"/><rect class="a" width="54.832" height="56.704" transform="translate(730.131 295.454)"/></g></svg>