<svg xmlns="http://www.w3.org/2000/svg" width="54" height="54" viewBox="0 0 54 54"><defs><style>.a{fill:#7800ff;}.b{fill:#fff;}</style></defs><g transform="translate(-1507 -49)"><circle class="a" cx="27" cy="27" r="27" transform="translate(1507 49)"/><g transform="translate(1524.813 67.9)"><g transform="translate(0 0)"><path class="b" d="M18.226,25.084a.686.686,0,0,0-.541-.264H4.242l-.619-2.588a.688.688,0,0,0-.668-.528H.687a.687.687,0,1,0,0,1.374H2.413l2.234,9.346a.687.687,0,0,0,.668.528h10.7a.687.687,0,0,0,.667-.522l1.672-6.758A.688.688,0,0,0,18.226,25.084ZM5.857,31.578l10.95-5.383Z" transform="translate(0 -21.705)"/></g><g transform="translate(4.555 12.848)"><path class="b" d="M111.482,362.612a1.676,1.676,0,1,0,1.676,1.676A1.678,1.678,0,0,0,111.482,362.612Z" transform="translate(-109.806 -362.612)"/></g><g transform="translate(12.555 12.848)"><path class="b" d="M111.482,362.612a1.676,1.676,0,1,0,1.676,1.676A1.678,1.678,0,0,0,111.482,362.612Z" transform="translate(-109.806 -362.612)"/></g></g></g></svg>